/* XPM */
static char *result[] = {
/* columns rows colors chars-per-pixel */
"64 64 6 1 ",
"  c #163C2B",
". c #503625",
"X c #755338",
"o c #296640",
"O c #9D7658",
"+ c #509B66",
/* pixels */
"++++++++++++++++++++++++++++++++++++++++++++++++++++++o+++++++++",
"+++++++o+++++++++++++++o++++++o++++++++++++++++++++++o++++++++++",
"+++++++ +++o+++++++++++ o+++++ ++++o++++++o+++o+++++oo+++++o++++",
"++o+++oo++ +++++++o+++oo o+++o o++o o+++++oo++ o++o  oo+++ +++++",
"+++oooooo o++++++++ooooo  ooo   ooo oo+++oo oo  oo  X ooo o+++++",
"++++ oo   o+++++++++ oo .X    XX   X ooooo    XX   XXX    o+++++",
"++++o  .X oo++o+++++o  .XOOXXXXXXXXXO     XXXXOOOOOOOOOXX oo++o+",
"++++o .XOX ooo++++++o .XOOOOOOOOOOOOOOOXXXXXOOOOOOOOOOOOOX ooo++",
"+++oo .OOOX o++++++oo .OOOOOOOOOOOOOOOOOOOOOOOOOOOOOOOOOOOX o+++",
"ooooo XOOO o++++ooooo XOOOOOOOOOOOOOOOOOOOOOOOOOOOOOOOOOOO o++++",
"+  o XOOOO o+++++  o XOOOOOOOOOOOOOOOOOOOOOOOOOOOOOOOOOOOO o++++",
"++  XXOOOO oo+++++  XXOOOOOOOOOOOOOOOOOOOOOOOOOOOOOOOOOOOO oo+++",
"++o XOOOOOX  +++++o XOOOOOOOOOOOOOOOOOOOOOOOOOOOOOOOOOOOOOX  +++",
"+++ XOOOOOX +++++++ XOOOOOOOOOOOOOOOOOOOOOOOOOOOOOOOOOOOOOX ++++",
"+++ XOOOOO ++++++++ XOOOOOOOOOOOOOOOOOOOOOOOOOOOOOOOOOOOOO +++++",
"+++ XOOOOO ++++++++ XOOOOOOOOOOOOOOOOOOOOOOOOOOOOOOOOOOOOO +++++",
"+++ XOOOOO oo++++++ XOOOOOOOOOOOOOOOOOOOOOOOOOOOOOOOOOOOOO oo+++",
"++o XOOOOO oo+++++o XOOOOOOOOOOOOOOOOOOOOOOOOOOOOOOOOOOOOO oo+++",
"+o  XOOOOO ooo+++o  XOOOOOOOOOOOOOOOOOOOOOOOOOOOOOOOOOOOOO ooo++",
"++o XOOOOOO oo++++o XOOOOOOOOOOOOOOOOOOOOOOOOOOOOOOOOOOOOOO oo++",
"+++o OOOOOO ++o++++o OOOOOOOOOOOOOOOOOOOOOOOOOOOOOOOOOOOOOO ++o+",
"++++ XOOOOO ++++++++ XOOOOOOOOOOOOOOOOOOOOOOOOOOOOOOOOOOOOO ++++",
"++++o OOOO oo+++++++o OOOOOOOOOOOOOOOOOOOOOOOOOOOOOOOOOOOO oo+++",
"++++o OOOO o++++++++o OOOOOOOOOOOOOOOOOOOOOOOOOOOOOOOOOOOO o++++",
"+++oo OOOO o+++++++oo OOOOOOOOOOOOOOOOOOOOOOOOOOOOOOOOOOOO o++++",
"++o  .OOOO o++++++o  .OOOOOOOOOOOOOOOOOOOOOOOOOOOOOOOOOOOO o++++",
"+++o XOOOO. o++++++o XOOOOOOOOOOOOOOOOOOOOOOOOOOOOOOOOOOOO. o+++",
"+++o XOOOOX  o+++++o XOOOOOOOOOOOOOOOOOOOOOOOOOOOOOOOOOOOOX  o++",
"++oo XOOOOX oo++++oo XOOOOOOOOOOOOOOOOOOOOOOOOOOOOOOOOOOOOX oo++",
"+oo XXOOOOX o++++oo XXOOOOOOOOOOOOOOOOOOOOOOOOOOOOOOOOOOOOX o+++",
"++  XOOOOO o++++++  XOOOOOOOOOOOOOOOOOOOOOOOOOOOOOOOOOOOOO o++++",
"+++ OOOOOO o+++++++ OOOOOOOOOOOOOOOOOOOOOOOOOOOOOOOOOOOOOO o++++",
"++o  OOOOO o++++++o  OOOOOOOOOOOOOOOOOOOOOOOOOOOOOOOOOOOOO o++++",
"++++o OOOO oo+++++++o OOOOOOOOOOOOOOOOOOOOOOOOOOOOOOOOOOOO oo+++",
"+++++o OOOX o++++++++o OOOOOOOOOOOOOOOOOOOOOOOOOOOOOOOOOOOX o+++",
"+++++o OOOO. o+++++++o OOOOOOOOOOOOOOOOOOOOOOOOOOOOOOOOOOOO. o++",
"+++++o XOOOX o+++++++o XOOOOOOOOOOOOOOOOOOOOOOOOOOOOOOOOOOOX o++",
"++++oo XOOX ooo+++++oo XOOOOOOOOOOOOOOOOOOOOOOOOOOOOOOOOOOX ooo+",
"++ooo .XOO oo+++++ooo .XOOOOOOOOOOOOOOOOOOOOOOOOOOOOOOOOOO oo+++",
"+++o .XXOO o+++++++o .XXOOOOOOOOOOOOOOOOOOOOOOOOOOOOOOOOOO o++++",
"++ooo XXOX o++++++ooo XXOOOOOOOOOOOOOOOOOOOOOOOOOOOOOOOOOX o++++",
"+o++oo XX  o+++++o++oo XXOOOOOOOOOOOOOOOOOOOOOOOOOOOOOOOX  o++++",
"+++++o   oooo++++++++o    XOOOOOOOOOO     OOOOOOO     OX oooo+++",
"+++++ooooo+++o+++++++ooooo XO    O   ooooo OO    ooooo  oo+++o++",
"+++++o++o++++++++++++o+++oo  oooo oo o+++oo  ooo o+++oooo+++++++",
"++++o+++o+++++++++++o+++++ooo+++o ooo++++++o o+++o++++o+o+++++++",
"+++++++++o++++++++++++++++o+++++++o++o++++++o+++++o++++++o++++++",
"++++++++++++++++++++++++++++++++++++++++++++++++++++++++++++++++",
"++++++++++++++++++++++++++++++++++++++++++++++++++++++o+++++++++",
"+++++++o+++++++++++++++o++++++o++++++++++++++++++++++o++++++++++",
"+++++++ +++o+++++++++++ o+++++ ++++o++++++o+++o+++++oo+++++o++++",
"++o+++oo++ +++++++o+++oo o+++o o++o o+++++oo++ o++o  oo+++ +++++",
"+++oooooo o++++++++ooooo  ooo   ooo oo+++oo oo  oo  X ooo o+++++",
"++++ oo   o+++++++++ oo .X    XX   X ooooo    XX   XXX    o+++++",
"++++o  .X oo++o+++++o  .XOOXXXXXXXXXO     XXXXOOOOOOOOOXX oo++o+",
"++++o .XOX ooo++++++o .XOOOOOOOOOOOOOOOXXXXXOOOOOOOOOOOOOX ooo++",
"++ooo XXOX o++++++ooo XXOOOOOOOOOOOOOOOOOOOOOOOOOOOOOOOOOX o++++",
"+o++oo XX  o+++++o++oo XXOOOOOOOOOOOOOOOOOOOOOOOOOOOOOOOX  o++++",
"+++++o   oooo++++++++o    XOOOOOOOOOO     OOOOOOO     OX oooo+++",
"+++++ooooo+++o+++++++ooooo XO    O   ooooo OO    ooooo  oo+++o++",
"+++++o++o++++++++++++o+++oo  oooo oo o+++oo  ooo o+++oooo+++++++",
"++++o+++o+++++++++++o+++++ooo+++o ooo++++++o o+++o++++o+o+++++++",
"+++++++++o++++++++++++++++o+++++++o++o++++++o+++++o++++++o++++++",
"++++++++++++++++++++++++++++++++++++++++++++++++++++++++++++++++"
};
