/* XPM */
static char *result[] = {
/* columns rows colors chars-per-pixel */
"64 64 207 2 ",
"   c #010000",
".  c #0D0104",
"X  c #0D020C",
"o  c #140202",
"O  c #1A0100",
"+  c #15090C",
"@  c #1B0C0B",
"#  c #190905",
"$  c #000015",
"%  c #09061A",
"&  c #180C15",
"*  c #1E1112",
"=  c #1D1219",
"-  c #1F100F",
";  c #250100",
":  c #290200",
">  c #260A00",
",  c #2A0B00",
"<  c #200F0D",
"1  c #251206",
"2  c #2D1300",
"3  c #24130A",
"4  c #2A160B",
"5  c #2E1A0D",
"6  c #331B01",
"7  c #3C1C00",
"8  c #341E09",
"9  c #2A1912",
"0  c #241515",
"q  c #321D11",
"w  c #3C2203",
"e  c #372218",
"r  c #392318",
"t  c #2F201F",
"y  c #00072D",
"u  c #1B1623",
"i  c #1A1A2D",
"p  c #17172A",
"a  c #171C32",
"s  c #181C32",
"d  c #2A1F25",
"f  c #2A232E",
"g  c #2D2123",
"h  c #3C2C2C",
"j  c #392825",
"k  c #2C2633",
"l  c #2F2A35",
"z  c #252738",
"x  c #372D34",
"c  c #3C333A",
"v  c #3A3237",
"b  c #491D00",
"n  c #441900",
"m  c #521F00",
"M  c #432301",
"N  c #4A2500",
"B  c #4E2D01",
"V  c #482B06",
"C  c #512200",
"Z  c #512D00",
"A  c #5A2B00",
"S  c #4F300C",
"D  c #533101",
"F  c #5C3704",
"G  c #422B1D",
"H  c #462C15",
"J  c #4F3219",
"K  c #543514",
"L  c #5F3D1C",
"P  c #653B03",
"I  c #643F19",
"U  c #663F10",
"Y  c #4C3324",
"T  c #493329",
"R  c #4F382E",
"E  c #533825",
"W  c #543A2A",
"Q  c #523725",
"!  c #473636",
"~  c #523B32",
"^  c #523E3B",
"/  c #6E4100",
"(  c #6B420E",
")  c #6E4514",
"_  c #644019",
"`  c #714716",
"'  c #54403E",
"]  c #564035",
"[  c #61432E",
"{  c #6C4722",
"}  c #724B25",
"|  c #6B4B33",
" . c #644A39",
".. c #735136",
"X. c #765438",
"o. c #714F34",
"O. c #061E45",
"+. c #132344",
"@. c #2C3248",
"#. c #393849",
"$. c #2A3959",
"%. c #333A52",
"&. c #3D3F53",
"*. c #272E42",
"=. c #423F4F",
"-. c #423F50",
";. c #3D4259",
":. c #3D4053",
">. c #3A4464",
",. c #49424D",
"<. c #574646",
"1. c #5F514C",
"2. c #444759",
"3. c #544D5B",
"4. c #584F5B",
"5. c #554B55",
"6. c #59515F",
"7. c #72594B",
"8. c #675149",
"9. c #7D6455",
"0. c #434B63",
"q. c #4B4D62",
"w. c #434E6B",
"e. c #404763",
"r. c #4D546D",
"t. c #495168",
"y. c #5B5565",
"u. c #56566A",
"i. c #4B5572",
"p. c #4E5976",
"a. c #4D5A7B",
"s. c #445273",
"d. c #555B75",
"f. c #515D7B",
"g. c #595C74",
"h. c #625A65",
"j. c #5B627D",
"k. c #57617E",
"l. c #71676B",
"z. c #60647E",
"x. c #606677",
"c. c #726C73",
"v. c #816656",
"b. c #836858",
"n. c #827879",
"m. c #515E80",
"M. c #556283",
"N. c #5A6585",
"B. c #5B6688",
"V. c #5D6A8C",
"C. c #5D6D93",
"Z. c #5F7099",
"A. c #646984",
"S. c #6A6D84",
"D. c #626D8D",
"F. c #646A84",
"G. c #7B7F8B",
"H. c #7F7D81",
"J. c #606E92",
"K. c #657294",
"L. c #687496",
"P. c #65759A",
"I. c #69779A",
"U. c #69799D",
"Y. c #6F7A96",
"T. c #717C9A",
"R. c #6F7686",
"E. c #6B7CA1",
"W. c #707FA5",
"Q. c #7B838D",
"!. c #7C8393",
"~. c #7483A5",
"^. c #7484A9",
"/. c #6F80A6",
"(. c #848286",
"). c #8E8381",
"_. c #918784",
"`. c #958986",
"'. c #818695",
"]. c #91919B",
"[. c #8F929D",
"{. c #868FA3",
"}. c #8993A8",
"|. c #9F9EA4",
" X c #8D9AB3",
".X c #909EB8",
"XX c #9DA5B2",
"oX c #9DA1A9",
"OX c #A3A3A7",
"+X c #A5A5AA",
"@X c #A6A8AD",
"#X c #A3AAB4",
"$X c #A2ADBE",
"%X c #ACB2BC",
"&X c #A3AEC0",
"*X c #A6B1C3",
"=X c #AEB6C1",
"-X c #B1B7C0",
";X c #B4BBC4",
":X c #B4BDC9",
">X c #B8BFC7",
",X c #B6C1CD",
"<X c #BAC3CE",
"1X c #BDC6D1",
"2X c #BFC9D4",
"3X c #C1CBD5",
"4X c None",
/* pixels */
"4X4X4X4X4X4X4X4X4X4X4X4X4X4X4X4X4X4X4X4X4X4X4X4X4X4X4X4X4X4X4X4X4X4X4X4X4X4X4X4X4X4X4X4X4X4X4X4X4X4X4X4X4X4X4X4X4X4X4X4X4X4X4X4X",
"4X4X4X4X4X4X4X4X4X4X4X4X4X4X4X4X4X4X4X4X4X4X4X4X4X4X4X4X4X4X4X4X4X4X4X4X4X4X4X4X4X4X4X4X4X4X4X4X4X4X4X4X4X4X4X4X4X4X4X4X4X4X4X4X",
"4X4X4X4X4X4X4X4X4X4X4X4X4X4X4X4X4X4X4X4X4X4X4X4X4X4X4X4X4X4X4X4X4X4X4X4X4X4X4X4X4X4X4X4X4X4X4X4X4X4X4X4X4X4X4X4X4X4X4X4X4X4X4X4X",
"4X4X4X4X4X4X4X4X4X4X4X4X4X4X4X4X4X4X4X4X4X4X4X4X4X4X4X4X4X4X4X4X4X4X4X4X4X4X4X4X4X4X4X4X4X4X4X4X4X4X4X4X4X4X4X4X4X4X4X4X4X4X4X4X",
"4X4X4X4X4X4X4X4X4X+ o o .             . . o & + + # # # # . # # # # # # # # # + + + o . . .         . . . o + 4X4X4X4X4X4X4X4X4X",
"4X4X4X4X4X4X4X4X* @ # O o o o o o o o O o # @ @ @ + # + + @ @ # + + + + + + + + @ @ # O o o o o o o o O o # @ @ 4X4X4X4X4X4X4X4X",
"4X4X4X4X4X4X4X4X3 3 q d f k k l l l k f 9 9 9 4 4 4 9 9 9 9 9 9 4 9 9 4 9 4 5 4 4 4 9 g f f k l l l k f g 9 4 4 4X4X4X4X4X4X4X4X",
"4X4X4X4X4X4X4X2 6 8 j c =.;.e.e.e.;.2.#.#.h w 6 e e e e e e e e e e e e e e e e 6 e j c #.;.e.>.>.e.2.#.c j 8 2 4 4X4X4X4X4X4X4X",
"4X4X4X4X4X@ 3 6 6 w T -.q.s.m.m.m.a.s.0.-.T M w H r G G G r G G G r G G G r G r M w T &.q.s.a.m.m.m.i.0.,.h w 7 6 3 @ 4X4X4X4X4X",
"4X4X4X4X+ @ 4 6 7 N ^ 6.d.B.C.C.C.J.B.d.3.! V N H Y Y J Y Y Y J Y Y Y Y Y Y Y S V B ! 3.g.B.C.C.C.C.B.g.3.^ N 7 6 4 + # 4X4X4X4X",
"4X4X4X4Xo + 5 7 N Z <.h.S.T.W.^.^.^.T.S.h.<.S Z K E W W W W W W W E E W W W W K Z F <.h.S.T.^.^.W.^.T.R.h.<.Z N w 5 + # 4X4X4X4X",
"4X4X4X4X. # q M N F 8.c.'.}. X.X.X X}.!.c.8.P F _ [ [ [ [ [ [ ] [ [ [ [ [ [ [ I F F 8.c.'.}. X.X.X X}.'.c.8.F N M 5 + . 4X4X4X4X",
"4X4X4X4X  + q M A P 7.n.}.@X&X*X*X&XXX].c.7._ / { | | | | | | | | | | | | | | _ P U 7.c.|.XX&X*X*X*XXX}.n.7.P Z N q #   4X4X4X4X",
"4X4X4X4X  o q M A U v._.|.%X:X:X,X>X%X|._.9.) / { ..o.o.X.X.X.o.....X.X.X.X...} P ) 9.).|.%X:X:X:X:X%X|._.b.( A N 9 .   4X4X4X4X",
"4X4X4X4X  . q N A U b.`.OX;X3X3X3X<X;X+X`.b.` / } X.X.X.X.X.X.X.X.X.X.X.X.X.X.} / ` b.`.OX;X<X3X3X3X;X+X`.b.( A N 9 .   4X4X4X4X",
"4X4X4X4X  o q N A ` b.`.+X;X1X3X3X1X;X@X_.b.` / } X.X.X.X.X.X.X.X.X.X.X.X.X.X.} / ` v.`.+X;X3X3X3X3X>X+X`.b.( A N q .   4X4X4X4X",
"4X4X4X4X  X q N A ( b.`.OX;X3X3X1X>X;XOX_.9.` P } ..X.X.X.X.X.X.X.X.X.X.X.X.X.} P ` 9._.+X;X1X1X<X3X%X+X`.v.P A A q .   4X4X4X4X",
"4X4X4X4X  . q N A ( v.`.+X%X>X>X1X1X-XOX_.9.` / } ..X.X.X.X.X.X.X.X.X.....X...} / ` 9._.OX-X:X1X<X>X%XOX`.v.U A C q .   4X4X4X4X",
"4X4X4X4X  X q N A ( v.`.+X%X3X3X1X:X;XOX_.v.` P } ..X.X.X...X...X.X.X.X.X.X...} / ` 9._.OX-X1X1X3X>X;X+X`.b.U A N q o   4X4X4X4X",
"4X4X4X4X  . q N A U v._.OX%X3X<X1X>X-XOX_.b.` / } ....X.X.X.X.X.X.X...X.X.....} P ` 9._.OX-X:X1X<X3X%XOX`.b.U A N q X   4X4X4X4X",
"4X4X4X4X  . e N A ( b._.OX-X<X1X<X<X%XOX_.9.) P } ..X.X.X.X.X.X.X.X.X.X.X.X...} / ` v._.OX-X>X1X3X>X-XOX`.v.U A N q X   4X4X4X4X",
"4X4X4X4X  . 9 N A ( b._.OX;X>X1X3X<X;XOX_.9.` / } ..X...X.X.X.X.X...X.....X.X.} / ` 9._.OX-X1X1X3X>X-XOX`.v.U A N q .   4X4X4X4X",
"4X4X4X4X  . e N A ( v.`.OX-X<X<X1X<X;X+X_.v.` P } ..X.X.X.X.X.X.X.X.X.X.X.X.X.} P ` 9._.OX-X>X1X>X:X;XOX`.v.U A N q .   4X4X4X4X",
"4X4X4X4X  . q N A U v.`.OX;X<X<X1X<X%XOX_.b.` / } X.X.X.X.X.X.X.X.X.X.X.X.X.X.} / ` v._.OX;X1X1X3X1X;XOX`.v.U A N q .   4X4X4X4X",
"4X4X4X4X  . q N A ) b.`.+X;X3X3X3X3X;X+X`.v.` / } X.X.X.X.X.X.X.X.X.X.X.X.X.X.} / ` b.`.+X>X1X3X3X3X%X+X`.b.) A N q .   4X4X4X4X",
"4X4X4X4X  . q N A ) b.`.+X;X3X3X3X<X%X+X`.v.` P } X.X.X.X.X.X.X.X.X.X.X.X.X.X.} P ` b.`.@X%X3X3X3X3X>X+X`.b.U A N q .   4X4X4X4X",
"4X4X4X4X  . q N A P 9._.|.%X:X:X:X:X%XOXn.v.U P } ..X.X.o.o.....o...o.....o.X.} P U v.n.OX%X;X>X>X;X%X|._.9.P A N q .   4X4X4X4X",
"4X4X4X4X  + 5 n m P 7.n.].XX&X*X*X$X+X].n.7.P P P I I U I I I _ I I I I I I I P P P 7.n.].+X$X*X&X$XoX].n.7.P C M 5 +   4X4X4X4X",
"4X4X4X4XX + 5 7 b A | l.G.{. X X X X{.G.l. .A m m C C C C C C C C C C m m C C C m A  .l.G.{. X X X X{.G.l.| A b 7 4 + X 4X4X4X4X",
"4X4X4X4X+ * 4 7 n N ^ h.S.T.W.W.~.~.Y.S.h.~ C b b m n b b b b n b b b N b n N b b A ^ h.S.Y.E.W.~.~.T.z.h.~ N n 7 4 @ + 4X4X4X4X",
"4X4X4X4Xo # 9 r G R <.u.g.V.P.P.P.Z.V.M.y.=.~ ~ <.1.1.1.1.1.1.1.1.1.1.1.1.1.1.<.^ ~ =.u.M.D.Z.E.P.P.D.z.y.5.R G r 9 # o 4X4X4X4X",
"4X4X4X4X. o g c ,.3.d.g.D.C.C.Z.Z.Z.C.M.d.u.h.l.c.(.).(.(.(.(.(.(.(.(.(.(.).H.c.h.h.y.d.M.C.C.Z.C.J.J.B.g.g.q.,.! d O . 4X4X4X4X",
"4X4X4X4X. o f 2.u.j.F.K.K.P.P.P.P.P.Z.D.B.N.R.Q.[.oX@X@X@XXX@XXX@XXX#X#X@X@XoX[.!.D.N.B.J.K.P.P.P.I.P.K.K.S.j.u.2.f o . 4X4X4X4X",
"4X4X4X4X  o k q.j.D.U.U.I.I.I.I.U.I.I.P.C.Z.!.}.#X%X,X>X,X;X;X;X;X;X;X;X,X;X%XXX}.!.C.C.K.I.P.P.U.U.I.I.U.I.K.k.q.k o   4X4X4X4X",
"4X4X4X4X  o k q.k.C.I.I.P.K.K.K.K.K.Z.J.V.C./.^.XX=X,X,X;X;X,X-X;X;X;X,X,X,X;XXX}.U.C.C.C.K.K.K.K.K.K.P.I.L.D.k.2.l o   4X4X4X4X",
"4X4X4X4X. O f :.i.k.N.V.B.B.B.B.B.N.B.M.m.m.R.Q.}.XX#X#X#XXXXXoXXXXXXXXX#X#XXX}.!.V.M.f.M.B.B.B.B.B.B.N.V.V.k.r.2.f O . 4X4X4X4X",
"4X4X4X4XO O g #.,.q.t.i.p.p.p.a.p.f.p.t.>.0.u.x.Q.Q.!.!.Q.Q.Q.H.Q.Q.Q.!.!.!.Q.Q.j.u.0.0.r.p.p.p.p.p.p.i.i.u.2.2.c g O O 4X4X4X4X",
"4X4X4X4XO @ 0 e j x c ,.2.0.w.w.>.s.0.;.:.v c :.;.d.d.d.t.q.2.2.2.2.2.t.d.d.r.q.,.c v #.;.0.w.w.w.w.w.;.:.c x j t 9 @ O 4X4X4X4X",
"4X4X4X4X3 @ 3 > > , q c :.0.w.s.>.t.>.2.v 6 6 l ;.>.>.$.+.y %     $ y +.$.>.;.:.l 6 w x :.0.w.s.s.w.0.:.v q 1 : > 3 < = 4X4X4X4X",
"4X4X4X4X= * 1 > ; ; 8 #.2.i.a.f.M.f.r.2.c w w v ;.>.>.$.O.%         $ O.>.>.>.;.v 6 w ! 2.r.f.a.f.a.i.2.c w ; ; ; 1 < = 4X4X4X4X",
"4X4X4Xu = 3 3 > ; , h ,.i.M.B.V.J.V.k.u.,.H G ,.u.M.M.s.$.y         y ;.s.M.k.u.,.G J ,.u.N.V.V.C.B.M.u.,.j , : > 1 - = = 4X4X4X",
"4X4Xi u = < < > ; 2 v 2.g.D.I.I./.L.S.j.5.] R 4.j.D.C.M.w.*.%     % *.>.k.J.Z.j.4.R R 3.g.D.P.I.I.L.C.g.q.v 2 : > 3 * & u a 4X4X",
"4Xs s u = < 1 > ; 2 ! q.N.K.U.E././.D.j.3.] ] 4.F.I.P.V.i.;.*.z *.@.;.p.V.P.I.F.4.W ] 3.z.K.E.E.E.U.K.N.q.v , ; > 1 * = u s s 4X",
"a a s u = @ 3 > ; 2 v q.N.L.U.W./.Z.K.j.4.R ] 6.F.U.U.Z.N.i.>.w.>.>.s.M.Z.U.I.S.6.R ] 4.z.L.U.E./.E.K.N.q.v 2 ; > 3 - = u s s s ",
"4X4Xi u = * 3 > ; 2 c q.j.L.U.E.E.U.K.z.5.W ] 6.A.I.U.P.C.B.B.M.N.N.V.C././.Y.j.6.] ~ 3.z.K.U.E.U.U.K.j.q.c 2 ; > 1 * = u i 4X4X",
"4X4Xi u = * 3 > ; 2 c q.j.J.U.U.E.I.J.x.4.R R 3.j.L.U.E.I.P.K.P.K.Z.L.P./.Z.L.j.6.R W 3.x.K.U.U.E.U.K.j.3.c 2 ; > 1 < = u s 4X4X",
"4X4Xi u = < 3 > ; 2 v 3.j.J.U.E.E.I.K.x.3.~ R 5.j.F.L.L.L.P.I.K./.K.K.L.J.L.D.j.5.R R 3.x.K.I.E.U.U.K.k.q.v 2 ; > 3 * = u i 4X4X",
"4X4Xi u = @ 3 > ; 2 c q.j.J.U.U.E.U.K.j.3.] Q <.6.j.A.N.A.A.F.A.x.F.F.F.x.N.j.6.<.Q ] 3.z.J.I.E.E.U.D.k.q.v 2 ; > 1 3 = u s 4X4X",
"4X4Xi u * @ 1 , : 2 c 3.k.K.I.P.U.U.K.z.6.^ J ~ 5.4.y.y.y.y.y.y.y.y.y.y.y.y.3.5.~ J ^ 6.j.K.I.E.E.U.K.k.q.c 6 : , 1 < * u i 4X4X",
"4X4Xi u = @ 1 , ; 6 c q.j.K.U.E.E.U.J.z.y.^ S S W ^ ^ =.' ' ' ' <.' ' ' =.^ ^ W S S ^ 6.z.K.P.E.E.I.D.j.q.c 2 : > 1 * = u i 4X4X",
"4X4Xi u = = < > ; 2 v q.j.K.U.E.E.U.J.z.y.^ Z N Z D Z D B D S Z B B B B A D D B N B ' y.z.K.E.E.E.U.K.k.q.c , ; > 3 * = u i 4X4X",
"4Xs i i u u 0 ; O : v q.N.L.U./.E.E.L.A.y.^ D Z Z Z Z Z B D Z Z D B D Z Z Z Z Z N D ' y.A.L.E.E./.U.K.N.q.v : O ; = = u i s s 4X",
"s s s i i i 0 O o ; x t.N.I.E.^.^.E.U.F.h.<.Z Z D K K K K K K K K K K K K K K Z D D ' h.F.I.W./.^.~.I.N.t.v O O O = u i i i s s ",
"s s s s s i u o . o x t.N.L.E.~.W.E.I.A.y.' D Z K Q E E E E E E E E E E E Q Q K Z D <.y.A.I.E.~./.E.L.N.q.l o . o i a s s s s s ",
"4X4X4X4X4X4Xa X   o k ;.f.D.I.U.I.P.D.j.y.^ S V J Y Q Y Y Q Y Y Y E Y Y Y Q Y K V S ^ y.j.D.I.U.I.I.V.f.2.k .   X i 4X4X4X4X4X4X",
"4X4X4X4X4X4Xa % . o f :.i.N.V.C.J.D.N.d.3.! H V G Y T T T T T T T T T T T T T G V H ! 5.d.N.V.J.K.V.N.i.:.f o . % a 4X4X4X4X4X4X",
"4X4X4X4X4X4Xa p % & z @.0.w.f.f.a.a.i.2.,.c j r j h h h h h h h h h h h h h h j j j v -.q.s.p.f.p.p.r.e.@.z & % p a 4X4X4X4X4X4X",
"4X4X4X4X4X4Xa a p p s z @.%.%.%.%.%.%.@.*.k k d d f z f f f z f f f z k f f z d d f k l @.%.%.%.%.%.%.@.z s i p i a 4X4X4X4X4X4X",
"4X4X4X4X4X4X4X4X4X4X4X4X4X4X4X4X4X4X4X4X4X4X4X4X4X4X4X4X4X4X4X4X4X4X4X4X4X4X4X4X4X4X4X4X4X4X4X4X4X4X4X4X4X4X4X4X4X4X4X4X4X4X4X4X",
"4X4X4X4X4X4X4X4X4X4X4X4X4X4X4X4X4X4X4X4X4X4X4X4X4X4X4X4X4X4X4X4X4X4X4X4X4X4X4X4X4X4X4X4X4X4X4X4X4X4X4X4X4X4X4X4X4X4X4X4X4X4X4X4X",
"4X4X4X4X4X4X4X4X4X4X4X4X4X4X$ $ 4X4X4X4X4X4X4X4X4X4X4X4X4X4X4X4X4X4X4X4X4X4X4X4X4X4X4X4X4X4X4X4X$ $ 4X4X4X4X4X4X4X4X4X4X4X4X4X4X",
"4X4X4X4X4X4X4X4X4X4X4X4X4X4Xa a a p a a a a s s s s s s s s s s s s s s s s s s s s a a a a a a a a 4X4X4X4X4X4X4X4X4X4X4X4X4X4X",
"4X4X4X4X4X4X4X4X4X4X4X4X4X4Xs s a s s s s s s s s s s s s s s s s s s s s s s s s s s s s s s a s s 4X4X4X4X4X4X4X4X4X4X4X4X4X4X",
"4X4X4X4X4X4X4X4X4X4X4X4X4X4Xs s a s s s a s s s s s s s s a s s s s s s a s s s s s s a s s s a s s 4X4X4X4X4X4X4X4X4X4X4X4X4X4X"
};
