/* XPM */
static char *result[] = {
/* columns rows colors chars-per-pixel */
"64 64 145 2 ",
"   c #030001",
".  c #0D0304",
"X  c #110306",
"o  c #150B06",
"O  c #160708",
"+  c #1B0C0A",
"@  c #1D120B",
"#  c #000015",
"$  c #090715",
"%  c #0E0916",
"&  c #0E0B18",
"*  c #140D16",
"=  c #140F19",
"-  c #1A1114",
";  c #1E1519",
":  c #2A0500",
">  c #2C0E00",
",  c #25000D",
"<  c #2D000E",
"1  c #2E1600",
"2  c #23140D",
"3  c #250014",
"4  c #27051A",
"5  c #2B0B1B",
"6  c #340716",
"7  c #390F16",
"8  c #291711",
"9  c #271912",
"0  c #2C1D14",
"q  c #2C1C1B",
"w  c #311F15",
"e  c #351119",
"r  c #361B1D",
"t  c #3D1E1D",
"y  c #2E201E",
"u  c #312016",
"i  c #3B2817",
"p  c #342219",
"a  c #39251A",
"s  c #3D291D",
"d  c #301C20",
"f  c #332423",
"g  c #3A2522",
"h  c #3D2A24",
"j  c #232533",
"k  c #382E34",
"l  c #401E1B",
"z  c #4C2F05",
"x  c #43241D",
"c  c #422C1E",
"v  c #4C3010",
"b  c #4B311A",
"n  c #51371D",
"m  c #563A1E",
"M  c #5B3D1F",
"N  c #402620",
"B  c #452E20",
"V  c #492C21",
"C  c #473021",
"Z  c #4D3424",
"A  c #503625",
"S  c #523826",
"D  c #583C23",
"F  c #543A28",
"G  c #5A3E2A",
"H  c #4D3A34",
"J  c #5F4026",
"K  c #5D422C",
"L  c #5F4433",
"P  c #644427",
"I  c #6A4626",
"U  c #62452E",
"Y  c #6B4C2C",
"T  c #744D22",
"R  c #745127",
"E  c #7A5126",
"W  c #7E5429",
"Q  c #664730",
"!  c #664931",
"~  c #694A32",
"^  c #704F35",
"/  c #6C5434",
"(  c #735137",
")  c #755338",
"_  c #79563A",
"`  c #7C593D",
"'  c #74603C",
"]  c #584644",
"[  c #47485B",
"{  c #504751",
"}  c #424961",
"|  c #535468",
" . c #555D78",
".. c #865926",
"X. c #8D5E27",
"o. c #865D2B",
"O. c #8E612D",
"+. c #92632C",
"@. c #99662C",
"#. c #966930",
"$. c #996E38",
"%. c #AC732F",
"&. c #AE7836",
"*. c #AD7A38",
"=. c #B77B32",
"-. c #BB7F35",
";. c #8A784A",
":. c #9F7A44",
">. c #BB8036",
",. c #BA8239",
"<. c #C7893B",
"1. c #D4923F",
"2. c #9A8652",
"3. c #A2854E",
"4. c #BE8A44",
"5. c #A18A54",
"6. c #AA985E",
"7. c #BFAC69",
"8. c #C78D40",
"9. c #D59643",
"0. c #D99741",
"q. c #D99843",
"w. c #D89D4C",
"e. c #C69B54",
"r. c #E5A54D",
"t. c #EAA74D",
"y. c #EAA94F",
"u. c #E1B05F",
"i. c #F0B156",
"p. c #F2B85E",
"a. c #CAAA63",
"s. c #C0AC69",
"d. c #C9B16B",
"f. c #EFB962",
"g. c #D9C377",
"h. c #E6C16F",
"j. c #F5C46B",
"k. c #E5C979",
"l. c #F3C972",
"z. c #F2D07B",
"x. c #576381",
"c. c #5F6B8B",
"v. c #667496",
"b. c #6D7CA2",
"n. c None",
/* pixels */
"b.b.v.x.} j           .       .   .     .       .   .     .     .       .     .   .     .       .     .   .         j } x.v.b.b.",
"b.b.v.x.} j       . X X X X X X X . X X X X X X . X X X . X X X X X X X X X X X . X X X X X X X X X X X X X .       j } x.v.b.b.",
"v.v.c. .[ k > : 1 w 0 w w 0 w w 0 w w w w q w w w 0 w w 0 w w w w w w q w 0 w w 0 w w w w w w q w 0 w w w w w 1 : > k [  .c.v.v.",
"x.x. .| { H v z b Z b Z Z Z Z Z Z Z Z Z Z Z Z Z Z Z Z Z Z Z Z Z Z Z Z Z Z Z Z Z Z Z Z Z Z Z Z Z Z Z Z Z Z Z V b z v H { |  .x.x.",
"} } [ { ] L P P U U U Q Q Q L U U U U U U K U U Q K Q Q G Q Q L U U U Q Q Q L U Q U U Q U U U U Q L Q U U U Q U P U L ] { [ } } ",
"j j k H L ~ ( ) ^ ^ ~ ( ~ ^ ^ ~ ( ~ ^ ^ ^ ( ( ~ ^ ^ ^ ^ ^ ^ ^ ^ ~ ^ ^ ^ ~ ^ ^ ~ ^ ^ ~ ^ ^ ^ ~ / ^ ~ ^ ^ ^ ~ ^ ( ( ( ^ L H k j j ",
"    > v U ( ` ` _ _ _ _ _ _ _ _ _ _ _ _ _ _ _ _ _ _ _ _ ) _ _ _ _ _ _ _ _ _ _ _ _ _ _ _ _ _ _ _ _ _ _ _ _ _ _ _ _ _ ( P v >     ",
"    : z P ) ` ` o._ _ _ _ _ _ _ ` _ _ _ _ _ ` _ _ _ _ _ _ _ _ _ _ _ _ _ _ _ _ _ _ _ _ _ _ _ _ _ _ _ _ _ _ _ _ ` o.` ( P z :     ",
"    1 b U ( ` ` ` _ _ _ _ _ _ ` ` _ _ ` _ ` _ _ _ _ _ _ _ _ _ _ _ _ _ _ _ _ _ _ _ _ _ _ _ _ _ _ _ _ _ _ _ _ _ _ ` ` ( Q b 1     ",
"  X u Z U ( _ ` _ _ _ _ _ ) _ _ ) _ _ ) ) ) _ _ _ _ _ _ _ _ _ _ _ _ _ _ _ _ _ _ _ _ _ _ _ _ _ _ _ _ _ _ _ _ _ _ ` ` ^ Q Z 0 .   ",
"  X w b K / ) ) ( ^ ^ ^ ^ ^ ^ ^ ( ( ( / ( ( ( / ^ ^ / ^ / ( ^ ^ ( ~ ^ ( ~ ( / ) ( ~ / ^ ( ( ( / ^ ^ ( / ( / ( ( ) ) ^ L V w X . ",
"X O 0 c G Q ! ! ~ Q Q Q Q Q Q L U U U L U U U ! U Q L Q Q Q Q K Q Q Q Q Q Q Q K Q Q Q Q U U U L Q Q U Q U Q ! ! ~ ~ L G c 0 O . ",
"O + 8 s Z K K K S K S A A S S S S A S A S S S S A A A F S Z F S S Z A A F S S S F F F F S S S A Z S S S A S F F G G G S c 8 + X ",
"+ + 8 a C A A Z C s s a g g s s s s s s s s s s s s s s s h s s s h s s s s s s s s s s s s s s s s s s s s h C A S A b a 8 + + ",
"+ + 8 i c A A C s y 9 y u u y u u u u u u u y u 0 u y u w w w w u u u 0 y u u u 0 q 0 u u u u u p y q 0 0 0 p h Z A A c i 8 + + ",
"X + 8 x Z K K J s u 9 9 u a p a a a y y u 9 9 0 u a a a a p s p a a a a a a p u 0 0 0 0 y p a a i a p u 9 9 w B A G G A c 8 + X ",
"X O 0 c G ~ ~ J Z a u u s s c Z B c c s u q 0 p s c B B B B V B B B B V B B B s a u q a s c B V c C c s y 0 a Z K ! ~ G c 0 X O ",
". X w Z U ^ ^ Q A s u p B Z S A S S Z B s u p s c Z S Z Z Z Z Z Z Z Z Z Z Z Z B a p a s V Z S S A Z Z c a u a S Q ( / U A w X . ",
"  X w S Q ) ) ~ F s q a B Z A F S S Z B c a a c Z Z A A S S S S Z A S S F S A C s a p s B Z S S F A Z B a u s F ! ) ( ! S w X   ",
"  X w S ~ ) _ ~ F s u a C Z A F S S S Z B s c B V S D A S S A A A A S S F A S C s p u s Z Z S S F F Z C a u s F ~ _ _ ! A w X   ",
"  X w A Q ( ) ~ F s w a V Z S S S S A Z Z B Z Z Z A A A A A A A A A A F F A Z V a u p s B Z A F S S Z B a w s F ~ ) ^ ~ A w X   ",
"  X w S Q ( ( ~ F s u a B A A S A A A Z Z Z Z Z Z A A A A A A Z A A S S A D Z B s p u s B Z F S S S Z B s w s F ~ ) ( Q Z w . . ",
". X w Z ~ ( ( ~ F s q a B Z A S A A A A S Z Z S A A A A A A A A A A Z S A A Z B s s a c Z Z A S S S Z c p w g F ~ ^ ) Q S w X   ",
"  X w S U ( ( ~ F s w a B Z A S A A A Z S S S S A A A A A A A A Z A A A A A Z Z B c c c V Z A S S S Z V a w s F ~ ( ^ Q Z w . . ",
"  X w Z Q ) ) ~ F s w a B Z S A A A A A A A A A A A A A A A Z A A A Z A A A A V V Z B Z Z Z S S F A Z c a u s F ~ ( ^ ~ A w X   ",
". X w S Q ^ ^ ~ F s q a B Z Z A A A A A A A A A A A A Z A A A A A A A A A A S S Z Z Z Z Z S Z S S A Z C a u s F ~ ( ^ ~ A w . . ",
". X w Z Q ) ) ! F s u a B Z Z S A A Z A A A A A Z A A A A A A A A Z A A Z A Z A A S A S A A Z Z Z S Z c a u s F ~ ( ( U S w X   ",
"  X w Z Q ( ( ~ F s w a B Z S S A A A A Z A A A A A A A A Z A A A A A A A A A S S S A Z x x l x N B h s y u c F ~ ( ( ~ Z w . . ",
"  X w S Q ( ) ! F s u a c Z S S A A Z A A A A A A A A A A A A A A A A A A A A S S A Z x 7 < , 3 5 d f q q 0 s F ~ ( ) Q Z w .   ",
". X w Z Q ( ( ~ F s u a B Z S F A A A A A A Z A A A Z A A A Z A Z A A A A A A A S S Z V l 7 6 e d N g g q 0 s F ~ ) ( Q S w X . ",
"  X w S Q ( ) ~ S s q a B Z A A A A A A A A A A A A A A A A A A A A A Z A A Z A Z Z S K ! / / ( / ~ P D b p g S Q ) ( Q A w X   ",
"  X w A Q ( ) Q F s u a B Z A A A A A A Z A A A Z A A A Z A A A A A A A A A A V c C K ' ;.2.5.3.:.$.X.E D s p Z Q ( ( Q A w X   ",
"  X u A Q ( ( ~ F s q a V Z A S A A A A A A A Z A A A A A A A Z A A A A A A A N 7 l ! ;.6.7.d.a.e.4.&.@.T b u h ! / ( Q A u .   ",
". X u Z Q ( ) ~ F h w a B A A S A A A Z A A A A A A A Z A A A A Z A A A A Z S l < 7 / 2.7.g.k.h.u.w.<.%.W n ; f L ) ( ! n u . . ",
"  X w A Q ( ( ~ F s w a B Z A A A A A A Z A A A Z A A A A Z A A A A A Z A Z A l , 6 / 2.d.k.z.l.f.y.1.=.O.m = f L ) ( Q Z w X   ",
"  X u A Q ( ( ~ F s w a B Z A A A A A A A A A A A A A A A A A A A A A A A S A l 3 e / 3.a.h.l.j.p.y.1.>.+.m & f L / ( ! S w . . ",
". X w A Q ( ( ~ A s y p B Z A A A A A A A A A A A A Z A A A A A Z A A A A A Z N 4 r / :.e.u.p.p.i.t.9.,.O.m = f L ( ( Q Z w X   ",
"  X w A ! ( ( ~ F s u a B Z A S A A A A A A Z A A A A A A A Z A A A A A Z S Z B d g Y $.4.w.y.y.t.r.9.,.O.m = f L ( ( Q Z w X . ",
"  X w Z Q ( ) ! F a u a B Z S Z A A A A A A A A A A A A Z A A A A A A Z A A Z B f h P O.&.<.1.1.1.q.<.*.W n ; h Q ^ ( Q A w X   ",
". X w A Q ( ( ~ F s u a B Z S S A A A Z A A A A A Z A A A A A A A A A A A A A V h C J W @.%.=.>.,.,.,.#.R b y h Q ( ) Q A w X   ",
"  X w Z U ^ ( ~ S s q a c Z S S A A A A A A A S A A A A A A Z A A A A A A Z A Z Z Z F U E ..O.+.+.+.O.R M i p S Q ( ( Q A w X   ",
"  X w S ~ ( ( ~ F s u a C Z S S A A A A A A A A A A A Z A A A A A Z A A A A A A A A A S A D m M J m A b i y s F ~ ( ( Q A q . . ",
". X w Z ~ ( ( ~ F s w a B Z S F A A A A A Z A A A A S Z A A A A A A A A A A A A A F V B r = # # # # $ * - u c F ~ ( ( Q Z w X   ",
"  X w S U ( ( ~ F s u a B Z Z A A A A Z b Z V c Z Z A S A Z A A A A A Z A A A A F A V B q & # # # # # & - 9 s G ~ ( ( Q Z w X . ",
"  X w A ~ ( ) ~ F s q a V Z A S S S Z Z B c c c Z Z S Z A A A A A Z A A A Z A A A A Z V B g f a s a f y 9 q c F ~ ( ( Q Z w X   ",
". X w Z U ( ( ~ F s u a c Z A S S Z Z Z h a s s V Z S S A Z A A A A A A A A A A A A A A A Z Z Z Z Z Z c a y s F ~ ) ( Q S w X   ",
"  X w A ~ ( ( ~ F s w a B Z S S S S Z B s p u s V A S A A A A A A A A A A A Z A A A A A A A A F F A Z c p w g F ~ ( ( Q A w X . ",
". X w S U ( ( ~ F s u p B Z A S S S Z B s u u s c A A A A A A A A A Z A A A A A A A A A A A F A F D Z C s w s F ~ ( ( Q A w X   ",
"  X w S Q ^ ( ~ S s u s B Z S S S S Z B s p p s C Z A A A A A A A A A A A A S Z A F A A A A A A S A Z V a u s F ! ) ( Q Z u X   ",
"  X w Z ~ ( ( ~ F s w a B Z S S S S Z C s p p s C Z A A A A A A A Z A A A A Z S A A A A D A A A S S Z B a u s F ! ( ( Q Z u . . ",
"  X w S Q ^ ) ~ F s q a V Z A S S S A C s p p s Z Z F A A A A A A A A A Z S Z S S Z Z Z Z A A A A S Z B a u s F ! ) ( ! A w X   ",
"  X w Z ~ ) ) ~ F B w a B Z S S F S A C s a a s C A A F S S A S A A A S S A Z Z Z Z Z Z Z A A F F A Z B a p c F ~ _ ) ! A w X   ",
"  X w S ~ ) _ ~ G s p a B S S S S S S C h a i s Z Z S S F S S S S S S S F F S Z B c c C Z S S F G S A B s w c F ~ _ _ ~ F w .   ",
"  X w A ~ ) _ ~ F c p a B S S F S J A C s a a s Z Z F D S S S S S S S S A D S Z s s a h Z Z S F S S S B s w h F ~ _ ( ~ S w X   ",
". O w Z U ~ ^ U S a 0 p c Z A A A A Z c i p p i c Z Z Z Z Z V Z V Z V A Z Z Z c a u u a c Z Z Z A Z V c p 0 s A U ^ ~ U Z w O . ",
"O O 0 c S U U D c u 9 0 a x c c c c s p u u 9 u a s c c c c c c c c c c c c s a u 9 9 u a s c b V c c a 0 9 w B F U U S c 0 O O ",
"+ @ 2 a s b n s p 2 @ @ 9 u u w u u w 9 2 @ @ 9 9 u u u w w u u w w u u u w w 8 @ @ @ @ u u u u u u u 9 @ @ 2 p c b b c p 2 2 + ",
"2 2 2 2 9 9 @ @ @ . . . . o o o o o o o . . . o o o o o o o o o o o o o o o o o . . o . o o o o o o o o . . . o @ 2 2 2 2 2 2 2 ",
"2 2 @ .                                                                                                                 X + 2 2 ",
"+ + o                                                                                                                     O + + ",
"O o .     n.n.n.n.n.n.n.n.n.n.n.n.n.n.n.n.n.n.n.n.n.n.n.n.n.n.n.n.n.n.n.n.n.n.n.n.n.n.n.n.n.n.n.n.n.n.n.n.n.n.n.n.n.n.    X o o ",
"  .     n.n.n.n.n.n.n.n.n.n.n.n.n.n.n.n.n.n.n.n.n.n.n.n.n.n.n.n.n.n.n.n.n.n.n.n.n.n.n.n.n.n.n.n.n.n.n.n.n.n.n.n.n.n.n.n.        ",
"        n.n.n.n.n.n.n.n.n.n.n.n.n.n.n.n.n.n.n.n.n.n.n.n.n.n.n.n.n.n.n.n.n.n.n.n.n.n.n.n.n.n.n.n.n.n.n.n.n.n.n.n.n.n.n.n.        ",
"        n.n.n.n.n.n.n.n.n.n.n.n.n.n.n.n.n.n.n.n.n.n.n.n.n.n.n.n.n.n.n.n.n.n.n.n.n.n.n.n.n.n.n.n.n.n.n.n.n.n.n.n.n.n.n.n.        "
};
