/* XPM */
static char *result[] = {
/* columns rows colors chars-per-pixel */
"64 64 185 2 ",
"   c #000000",
".  c #0E0502",
"X  c #0F0B07",
"o  c #130401",
"O  c #1A0100",
"+  c #150A04",
"@  c #1B0D06",
"#  c #1F1107",
"$  c #070C16",
"%  c #000019",
"&  c #07091A",
"*  c #1C151B",
"=  c #190515",
"-  c #230C00",
";  c #280100",
":  c #390800",
">  c #221104",
",  c #25150A",
"<  c #2C1A0D",
"1  c #29180B",
"2  c #351E0B",
"3  c #381905",
"4  c #291C19",
"5  c #341F11",
"6  c #311F1C",
"7  c #3E2209",
"8  c #362012",
"9  c #3C2415",
"0  c #37271D",
"q  c #28221A",
"w  c #00002D",
"e  c #000B2A",
"r  c #0C162C",
"t  c #07132B",
"y  c #181828",
"u  c #000036",
"i  c #0F1930",
"p  c #151C32",
"a  c #181D32",
"s  c #261C24",
"d  c #31252A",
"f  c #372622",
"g  c #3A3129",
"h  c #2E203B",
"j  c #421B07",
"k  c #492200",
"l  c #4B2A00",
"z  c #592E00",
"x  c #582B00",
"c  c #553100",
"v  c #402717",
"b  c #432A16",
"n  c #442B19",
"m  c #492E1C",
"M  c #482E17",
"N  c #4D321D",
"B  c #50341F",
"V  c #57391D",
"C  c #653E00",
"Z  c #4E362A",
"A  c #4C3120",
"S  c #523621",
"D  c #563923",
"F  c #593C24",
"G  c #593C2A",
"H  c #503829",
"J  c #493F33",
"K  c #633C28",
"L  c #6C411C",
"P  c #71570A",
"I  c #47473B",
"U  c #584A3B",
"Y  c #62422F",
"T  c #634532",
"R  c #6B4A33",
"E  c #724C35",
"W  c #744F39",
"Q  c #6A533B",
"!  c #74523A",
"~  c #735037",
"^  c #001B44",
"/  c #002754",
"(  c #1C2345",
")  c #242F5A",
"_  c #2B385B",
"`  c #3A3858",
"'  c #000868",
"]  c #1B3C7B",
"[  c #173C7E",
"{  c #423651",
"}  c #3B4657",
"|  c #594F41",
" . c #564F42",
".. c #595244",
"X. c #4F4356",
"o. c #54475F",
"O. c #6A5E4D",
"+. c #665747",
"@. c #7D5740",
"#. c #755C48",
"$. c #735F59",
"%. c #7A614D",
"&. c #756659",
"*. c #4B4663",
"=. c #51526F",
"-. c #645960",
";. c #84543A",
":. c #8B5F44",
">. c #8E654B",
",. c #91654B",
"<. c #95694E",
"1. c #9C6D4D",
"2. c #986D52",
"3. c #82745F",
"4. c #9E7054",
"5. c #9F7359",
"6. c #A27356",
"7. c #A47559",
"8. c #AB7758",
"9. c #AB7A5C",
"0. c #A9785A",
"q. c #B17E5F",
"w. c #A77F6D",
"e. c #A87E62",
"r. c #B27F60",
"t. c #B1835F",
"y. c #9E8C74",
"u. c #AF8366",
"i. c #A78064",
"p. c #B58262",
"a. c #B48A6C",
"s. c #AB8474",
"d. c #A28D75",
"f. c #AE967B",
"g. c #AB997F",
"h. c #B6987C",
"j. c #B6A07D",
"k. c #C29B7C",
"l. c #003C8D",
"z. c #1F498C",
"x. c #1C519F",
"c. c #27549A",
"v. c #3B5693",
"b. c #0555A9",
"n. c #005CB3",
"m. c #005EB8",
"M. c #2B5EA8",
"N. c #2E5AA4",
"B. c #0060BD",
"V. c #2B61AF",
"C. c #3964AC",
"Z. c #3960A6",
"A. c #2361B3",
"S. c #2269BF",
"D. c #2C67BA",
"F. c #58669A",
"G. c #696682",
"H. c #506CA3",
"J. c #5979B7",
"K. c #587ABA",
"L. c #1B6AC3",
"P. c #9D8F86",
"I. c #9F9595",
"U. c #AD9C82",
"Y. c #B19E83",
"T. c #B5A286",
"R. c #BEA385",
"E. c #B6A489",
"W. c #B9A68A",
"Q. c #BEA98D",
"!. c #B5A390",
"~. c #838FA6",
"^. c #8591AC",
"/. c #94A1BB",
"(. c #AFA9AD",
"). c #ACA4A8",
"_. c #C2AB8D",
"`. c #C0A78A",
"'. c #C3AD90",
"]. c #C5B194",
"[. c #CAB495",
"{. c #CBB799",
"}. c #D2BB9B",
"|. c #99A6C1",
" X c None",
/* pixels */
" X X X X X X X X X X X X X X X X X X X X X X X X X X X X X X X X X X X X X X X X X X X X X X X X X X X X X X X X X X X X X X X X",
" X X X X X X X X X X X X X X X X X X X X X X X X X X X X X X X X X X X X X X X X X X X X X X X X X X X X X X X X X X X X X X X X",
" X X X X X X X X X X X X X X X X X X X X X X X X X X X X X X X X X X X X X X X X X X X X X X X X X X X X X X X X X X X X X X X X",
" X X X X X X X X X X X X X X X X X X X X X X X X X X X X X X X X X X X X X X X X X X X X X X X X X X X X X X X X X X X X X X X X",
" X X X X X X X X X X X X X X X X X X X X X X X X X X X X X X X X X X X X X X X X X X X X X X X X X X X X X X X X X X X X X X X X",
" X X X X X X X X X X X X X X X X X X X X X X X X X X X X X X X X X X X X X X X X X X X X X X X X X X X X X X X X X X X X X X X X",
" X X X X X X X X X X X X X X X X X X X X X X X X X X X X X X X X X X X X X X X X X X X X X X X X X X X X X X X X X X X X X X X X",
" X X X X X X X X X X X X X X X X X X X X X X X X X X X X X X X X X X X X X X X X X X X X X X X X X X X X X X X X X X X X X X X X",
" X X X X X X X X X X X X X X X X X X X X X X X X X X X X X X X X X X X X X X X X X X X X X X X X X X X X X X X X X X X X X X X X",
" X X X X X X X X X X X X X X X X X X X X X X X X X X X X X X X X X X X X X X X X X X X X X X X X X X X X X X X X X X X X X X X X",
" X X X X X X X X X X X X X X X X X X X X X X X X X X X X X X X X X X X X X X X X X X X X X X X X X X X X X X X X X X X X X X X X",
" X X X X X X X X X X X X X X X X X X X X X X X X X X X X X X X X X X X X X X X X X X X X X X X X X X X X X X X X X X X X X X X X",
" X X X X X X X X X X X X X X X X X X X X X X X X X X X X X X X X X X X X X X X X X X X X X X X X X X X X X X X X X X X X X X X X",
" X X X X X X X X X X X X X X X X X X X X X X X X X X X X X X X X X X X X X X X X X X X X X X X X X X X X X X X X X X X X X X X X",
" X X X X X X X X X X X X X X X X X X X X                 X X         X X X X X X X X X X X X X X X X X X X X X X X X X X X X X X",
" X X X X X X X X X X X X X X X X X X X X  X , < < 1 > +  X X1 1 .    X X X X X X X X X X X X X X X X X X X X X X X X X X X X X X",
" X X X X X X X X X X X X X X X X X X X X  , N S B N 9 <   # N n #            X X X X X X X X X X X X X X X X X X X X X X X X X X",
" X X X X X X X X X X X X X X X X X X X X  , m D F F B v > < S D 8 X , 1 < 1  X X X X X X X X X X X X X X X X X X X X X X X X X X",
" X X X X X X X X X X X X X X X X X X X X    . 8 B F D N 9 9 S S 9 8 M N D n @    X X X X X X X X X X X X X X X X X X X X X X X X",
" X X X X X X X X X X X X X X X X X X X X@ @ . 5 B F F D N N D D N N B Y Y D 9 @  X X X X X X X X X X X X X X X X X X X X X X X X",
" X X X X X X X X X X X X X X X X X X  . < 9 N S D D F D D S F D S S D Y D D V b @    X X X X X X X X X X X X X X X X X X X X X X",
" X X X X X X X X X X X X X X X X X X. < 9 N F F F D D D D F D D D F V B B Y Y B 9 @  X X X X X X X X X X X X X X X X X X X X X X",
" X X X X X X X X X X X X X X X X  @ < n N D F F F F F D D D D D V Y Y V D D D V S n ,    X X X X X X X X X X X X X X X X X X X X",
" X X X X X X X X X X X X X X X X  @ 8 N D F F S B D D D F D D D B B B N S D D D Y S <    X X X X X X X X X X X X X X X X X X X X",
" X X X X X X X X X X X X X X X X  @ 8 m S F F S m M S F D D F S m 9 2 2 b N V F F S ,    X X X X X X X X X X X X X X X X X X X X",
" X X X X X X X X X X X X X X X X  @ 8 n B S S S v n S F F D F S 9 n G R E R F B D S 5    X X X X X X X X X X X X X X X X X X X X",
" X X X X X X X X X X X X X X X X  @ 9 n n n n n v n S F D F F N o H >.7.7.,.D - S D n < @    X X X X X X X X X X X X X X X X X X",
" X X X X X X X X X X X X X X X X  @ 9 v n n v 9 5 n S F F D N S F @.7.t.p.7.@.G D S m 9 @    X X X X X X X X X X X X X X X X X X",
" X X X X X X X X X X X X X X X X  @ 9 n S A n 5 - 2 S F F N - F <.0.8.8.8.8.0.<.T 2 n 5 #    X X X X X X X X X X X X X X X X X X",
" X X X X X X X X X X X X X X X X  @ 5 m D D M N Y Y D A S F D ~ <.e.p.a.a.u.e.<.G - 9 9 #    X X X X X X X X X X X X X X X X X X",
" X X X X X X X X X X X X X X X X  @ 5 m D F M R 2.<.D - m E ,.,.K #.f.`.`.f.#.v , @ 9 9 #    X X X X X X X X X X X X X X X X X X",
" X X X X X X X X X X X X X X X X  @ 9 n N S N ~ 8.9.@.S 3 ! p.i.3 I U.{.{.U.|     @ 8 8 @    X X X X X X X X X X X X X X X X X X",
" X X X X X X X X X X X X X X X X  @ 9 m n m M ~ 6.r.0.:.: U h.f.f g g.[.[.U.I     X @ @  X X X X X X X X X X X X X X X X X X X X",
" X X X X X X X X X X X X X X X X  @ < 9 9 v 7 R 4.r.p.7.#.3.W.W.&.&.Y.].].T.3.J q        X X X X X X X X X X X X X X X X X X X X",
" X X X X X X X X X X X X X X X X X Xo < 9 9 o G 2.r.q.u.f.E._.Q.Y.Y.Q.'.'._.Q.y...   X X X X X X X X X X X X X X X X X X X X X X",
" X X X X X X X X X X X X X X X X X X  . 1 m H @.6.r.8.p.R.'.'.'.[.].'.'.'._.[.h.+.   X X X X X X X X X X X X X X X X X X X X X X",
" X X X X X X X X X X X X X X X X X X X X  G <.r.r.r.9.r.r.f.`.'.].].].].]._.k.e.T    X X X X X X X X X X X X X X X X X X X X X X",
" X X X X X X X X X X X X X X X X X X X X  H >.7.2.4.0.9.8.u.h.`.R.R.R.R.Q.h.9.;.m    X X X X X X X X X X X X X X X X X X X X X X",
" X X X X X X X X X X X X X X X X X X X X X X3 j j E 7.p.r.r.u.p.t.t.p.p.a.e.Q O  X X X X X X X X X X X X X X X X X X X X X X X X",
" X X X X X X X X X X X X X X X X X X X X X XU  .| #.<.6.1.5.i.s.s.s.s.w.7.:.Y 4  X X X X X X X X X X X X X X X X X X X X X X X X",
" X X X X X X X X X X X X X X X X X X X X  ..y.E.Y.d.>.z x #.I.(.).).(.I.$.K ,.<.S    X X X X X X X X X X X X X X X X X X X X X X",
" X X X X X X X X X X X X X X X X X X X X  O.E.}.}.Y.+.  u =.^.|./././.~.` x 8.8.T    X X X X X X X X X X X X X X X X X X X X X X",
" X X X X X X X X X X X X X X X X X X X X  O.E.}.}.h.P w z.C.K.K.J.J.K.H._ P 0.9.T    X X X X X X X X X X X X X X X X X X X X X X",
" X X X X X X X X X X X X X X X X X X X X  U d.E.!.P.$.l.D.S.n.b.n.B.B.b.) C <.>.H    X X X X X X X X X X X X X X X X X X X X X X",
" X X X X X X X X X X X X X X X X X X X X  0 Q &.-.H.H.A.D.A.N.x.A.S.L.M.` k V H d  X X X X X X X X X X X X X X X X X X X X X X X",
" X X X X X X X X X X X X X X X X X X X X$     w ' l.M.C.M.x.[ ] c.Z.C.v.` ;     e  X X X X X X X X X X X X X X X X X X X X X X X",
" X X X X X X X X X X X X X X X X X X X Xa &   = h ` o.o._ / ^ ( ` X.o.X.d   % e i  X X X X X X X X X X X X X X X X X X X X X X X",
" X X X X X X X X X X X X X X X X X X Xa  Xr % o 3 l c l ;     O 3 j c l > % i  X Xa a  X X X X X X X X X X X X X X X X X X X X X",
" X X X X X X X X X X X X X X X X X X Xa a p r y s f f 0 * $ & y 4 6 0 f y t p  X Xa a  X X X X X X X X X X X X X X X X X X X X X",
" X X X X X X X X X X X X X X X X X X X X Xa  X X X X X X X X X X X X X X X Xa p a  X X X X X X X X X X X X X X X X X X X X X X X",
" X X X X X X X X X X X X X X X X X X X X Xa a a p a p p a a a a p p p p a a a a a  X X X X X X X X X X X X X X X X X X X X X X X",
" X X X X X X X X X X X X X X X X X X X X X X X X X X X X X X X X X X X X X X X X X X X X X X X X X X X X X X X X X X X X X X X X",
" X X X X X X X X X X X X X X X X X X X X X X X X X X X X X X X X X X X X X X X X X X X X X X X X X X X X X X X X X X X X X X X X",
" X X X X X X X X X X X X X X X X X X X X X X X X X X X X X X X X X X X X X X X X X X X X X X X X X X X X X X X X X X X X X X X X",
" X X X X X X X X X X X X X X X X X X X X X X X X X X X X X X X X X X X X X X X X X X X X X X X X X X X X X X X X X X X X X X X X",
" X X X X X X X X X X X X X X X X X X X X X X X X X X X X X X X X X X X X X X X X X X X X X X X X X X X X X X X X X X X X X X X X",
" X X X X X X X X X X X X X X X X X X X X X X X X X X X X X X X X X X X X X X X X X X X X X X X X X X X X X X X X X X X X X X X X",
" X X X X X X X X X X X X X X X X X X X X X X X X X X X X X X X X X X X X X X X X X X X X X X X X X X X X X X X X X X X X X X X X",
" X X X X X X X X X X X X X X X X X X X X X X X X X X X X X X X X X X X X X X X X X X X X X X X X X X X X X X X X X X X X X X X X",
" X X X X X X X X X X X X X X X X X X X X X X X X X X X X X X X X X X X X X X X X X X X X X X X X X X X X X X X X X X X X X X X X",
" X X X X X X X X X X X X X X X X X X X X X X X X X X X X X X X X X X X X X X X X X X X X X X X X X X X X X X X X X X X X X X X X",
" X X X X X X X X X X X X X X X X X X X X X X X X X X X X X X X X X X X X X X X X X X X X X X X X X X X X X X X X X X X X X X X X",
" X X X X X X X X X X X X X X X X X X X X X X X X X X X X X X X X X X X X X X X X X X X X X X X X X X X X X X X X X X X X X X X X",
" X X X X X X X X X X X X X X X X X X X X X X X X X X X X X X X X X X X X X X X X X X X X X X X X X X X X X X X X X X X X X X X X"
};
